<svg xmlns="http://www.w3.org/2000/svg" width="80" viewBox="0 0 31.89 30.11"><g id="Warstwa_2" data-name="Warstwa 2"><g fill="rgba(255,255,255,.5)" stroke="none" id="Warstwa_1-2" data-name="Warstwa 1"><path d="M13.37,0a.74.74,0,0,0-.46.28C12.86.36.06,29.11,0,29.23a.74.74,0,0,0,.08.54A.8.8,0,0,0,.38,30c.18.08-.17.07,5.29.07h5l.09,0a.74.74,0,0,0,.32-.22c.05-.07.3-.61,1.14-2.5l1.08-2.43h5.23l1.08,2.42c.63,1.42,1.1,2.45,1.13,2.49a1,1,0,0,0,.26.22c.14.07-.11.06,5.24.06s5.07,0,5.25-.08a.87.87,0,0,0,.28-.26.76.76,0,0,0,.07-.53C31.86,29.17,19.09.48,19,.36A.66.66,0,0,0,18.63,0l-.1,0H13.37Zm4,1.41s-1.8,4.06-4,9-4,9-4,9.08a.71.71,0,0,0,.41.88l.09,0h6.12c5.45,0,6.13,0,6.21,0a.71.71,0,0,0,.51-.57.45.45,0,0,0,0-.23c0-.09-.39-.93-1.81-4.12-1-2.22-1.8-4-1.83-4.08a.67.67,0,0,0-.49-.3.53.53,0,0,0-.25,0,.74.74,0,0,0-.45.34l-1.71,3.82L14.43,19h-1.7C11.55,19,11,19,11,19s1.65-3.71,3.66-8.23L18.38,2.5l0-.07,0,0L30.11,28.7h-3.4l-1.07-2.42c-.89-2-1.09-2.42-1.14-2.49a.81.81,0,0,0-.34-.24c-.07,0-.47,0-8.18,0H7.8a.76.76,0,0,0-.48.36S6.81,25,6.24,26.33L5.18,28.7H1.79s2.71-6.11,6-13.57L13.9,1.48l0-.08h1.7C17,1.4,17.33,1.41,17.32,1.42Zm2.31,14.83c.67,1.5,1.22,2.74,1.22,2.75s-.55,0-1.69,0H17.47l-.38-.84-.38-.85.85-1.9c.47-1.05.85-1.91.86-1.91ZM11.78,25s-.38.86-.84,1.88l-.83,1.87H8.42a11.58,11.58,0,0,1-1.69,0s.38-.87.84-1.89l.82-1.87h1.7A11.24,11.24,0,0,1,11.78,25Zm12.55,1.84.84,1.89a12,12,0,0,1-1.69,0h-1.7l-.17-.37a2.31,2.31,0,0,1-.31-1.21,1.55,1.55,0,0,1,0-.42,2.29,2.29,0,0,1,1.08-1.5,2.06,2.06,0,0,1,1-.27h.12Z"/></g></g></svg>