<svg xmlns="http://www.w3.org/2000/svg" viewBox="0 0 80 75"><g opacity="0.5"><path d="M9.47-22.76a1.88,1.88,0,0,0-1.06.7c-.12.2-32.24,72.34-32.39,72.77a2,2,0,0,0,.2,1.36,2.33,2.33,0,0,0,.75.57c.45.2-.43.18,13.27.18H3a1.7,1.7,0,0,0,.8-.55c0-.18.75-1.53,2.86-6.28L9.39,39.9H22.51L25.22,46c1.58,3.56,2.76,6.15,2.84,6.25a3.44,3.44,0,0,0,.65.55c.35.17-.27.15,13.15.15s12.72,0,13.17-.2a1.71,1.71,0,0,0,.88-2c0-.31-32.09-72.3-32.32-72.6a1.53,1.53,0,0,0-.93-.9Zm10,3.54L9.47,3.36c-5.53,12.4-10,22.58-10,22.79a1.79,1.79,0,0,0,1,2.2H31.62a1.75,1.75,0,0,0,1.28-1.43,1.1,1.1,0,0,0,0-.57c0-.23-1-2.34-4.54-10.34-2.51-5.57-4.52-10-4.59-10.24A1.61,1.61,0,0,0,22.54,5a1.34,1.34,0,0,0-.63,0,1.9,1.9,0,0,0-1.13.85l-4.29,9.59-4.36,9.46H3.52L12.7,4.26,22-16.49v-.17h0L51.47,49.26H42.94l-2.69-6.08c-2.23-5-2.73-6.07-2.86-6.24a1.92,1.92,0,0,0-.85-.61h-41a2,2,0,0,0-1.21.91S-7,40-8.43,43.31l-2.66,5.95h-8.5s6.8-15.34,15.05-34L10.92-19v-.2H19.5ZM25.3,18c1.68,3.76,3.19,6.93,3.19,6.93H19.75l-.95-2.11-.95-2.13L20,15.91c1.18-2.64,2.13-4.79,2.16-4.79ZM5.48,40,3.39,44.69,1.31,49.38H-3a30,30,0,0,1-4.24,0s1-2.18,2.11-4.74L-3,40H1.23A27.41,27.41,0,0,1,5.48,40ZM37,44.59l2.1,4.74a30,30,0,0,1-4.24,0H30.57l-.43-.93a6.19,6.19,0,0,1-.78-3,9.37,9.37,0,0,1,0-1.06,5.88,5.88,0,0,1,2.71-3.76,5.16,5.16,0,0,1,2.51-.68h.3Z" transform="translate(24.03 22.76)" fill="#fff"/></g></svg>