<svg id="Layer_1" data-name="Layer 1" xmlns="http://www.w3.org/2000/svg" viewBox="0 0 76.0786 65.7506">
  <defs>
    <style>
      .cls-1 {
        fill: #4570b4;
      }

      .cls-2 {
        fill: #313280;
      }

      .cls-3 {
        fill: #56a099;
      }

      .cls-4 {
        fill: #8da2d3;
      }

      .cls-5 {
        fill: #a6a6a6;
      }
    </style>
  </defs>
  <path id="Path_5751" data-name="Path 5751" class="cls-1" d="M62.3282,21.6a6.9759,6.9759,0,0,1-6.9752,6.977h-.0009a6.9766,6.9766,0,0,1-6.98-6.9733V21.6a6.98,6.98,0,0,1,6.98-6.9806h0A6.98,6.98,0,0,1,62.3282,21.6" transform="translate(-1.781 -1.6634)"/>
  <path id="Path_5752" data-name="Path 5752" class="cls-2" d="M77.8577,34.6509a6.9794,6.9794,0,0,1-6.9761,6.9843h0a6.98,6.98,0,0,1-6.98-6.9806v-.0037a6.9759,6.9759,0,0,1,6.9788-6.9734h.001a6.973,6.973,0,0,1,6.9761,6.97v.0036" transform="translate(-1.781 -1.6634)"/>
  <path id="Path_5753" data-name="Path 5753" class="cls-3" d="M32.8373,34.6509a6.976,6.976,0,0,1,6.9789-6.9734h.0009a6.9767,6.9767,0,0,1,6.98,6.9734h0a6.9793,6.9793,0,0,1-6.9761,6.9843h-.0036a6.9843,6.9843,0,0,1-6.98-6.9843" transform="translate(-1.781 -1.6634)"/>
  <path id="Path_5754" data-name="Path 5754" class="cls-4" d="M32.8373,8.6513a6.98,6.98,0,1,1,6.98,6.9807h0a6.98,6.98,0,0,1-6.98-6.9807h0" transform="translate(-1.781 -1.6634)"/>
  <path id="Path_5755" data-name="Path 5755" class="cls-2" d="M62.3282,47.4482a6.9753,6.9753,0,0,1-6.9716,6.9806h-.0045a6.9767,6.9767,0,0,1-6.98-6.9733v-.0073a6.9714,6.9714,0,0,1,6.9679-6.977h.0119a6.9728,6.9728,0,0,1,6.9761,6.97v.0073" transform="translate(-1.781 -1.6634)"/>
  <path id="Path_5756" data-name="Path 5756" class="cls-1" d="M32.8373,60.4188a6.98,6.98,0,0,1,13.9595-.0037v.0037a6.9759,6.9759,0,0,1-6.9752,6.977h-.0045a6.9768,6.9768,0,0,1-6.98-6.9734v-.0036" transform="translate(-1.781 -1.6634)"/>
  <path id="Path_5757" data-name="Path 5757" class="cls-5" d="M70.8852,4.0061a4.6486,4.6486,0,0,1,.2728,9.2887h-.2874a4.65,4.65,0,0,1-.2691-9.2924h.2837m0-2.3317h-.426a6.9767,6.9767,0,0,0,.4114,13.9412h.43a6.9789,6.9789,0,0,0,6.5464-7.3875V8.2207a6.9807,6.9807,0,0,0-6.9615-6.5573" transform="translate(-1.781 -1.6634)"/>
  <path id="Path_5758" data-name="Path 5758" class="cls-5" d="M24.3031,16.9511a4.6506,4.6506,0,0,1,.2764,9.2924h-.2874a4.65,4.65,0,0,1-.2727-9.2924h.2837m0-2.3317h-.426a6.9789,6.9789,0,0,0-6.5465,7.3875v.0036a6.9767,6.9767,0,0,0,6.9725,6.5465h.426a6.9763,6.9763,0,0,0,6.5474-7.38l-.001-.0109a6.9761,6.9761,0,0,0-6.9578-6.5574" transform="translate(-1.781 -1.6634)"/>
  <path id="Path_5759" data-name="Path 5759" class="cls-5" d="M8.7663,55.7972A4.6505,4.6505,0,0,1,9.0427,65.09H8.7553a4.6486,4.6486,0,0,1-.2727-9.2887h.2837m0-2.3318H8.34A6.9788,6.9788,0,0,0,8.7517,67.414h.43a6.9747,6.9747,0,0,0,6.5464-7.38v-.0073a6.9776,6.9776,0,0,0-6.9615-6.5574" transform="translate(-1.781 -1.6634)"/>
  <path id="Path_5760" data-name="Path 5760" class="cls-5" d="M8.7663,4.0061a4.6486,4.6486,0,0,1,.2764,9.2887H8.7553a4.65,4.65,0,0,1-.2727-9.2924h.2837m0-2.3317H8.34a6.9769,6.9769,0,0,0,.4114,13.9412h.43a6.9789,6.9789,0,0,0,6.5464-7.3875V8.2207A6.9807,6.9807,0,0,0,8.7663,1.6634" transform="translate(-1.781 -1.6634)"/>
  <path id="Path_5761" data-name="Path 5761" class="cls-5" d="M24.3031,42.8047a4.6469,4.6469,0,0,1,3.4748,7.7306A4.6036,4.6036,0,0,1,24.58,52.0934h-.2874a4.6486,4.6486,0,0,1-.2727-9.2887h.2837m0-2.3317h-.426a6.9759,6.9759,0,0,0-6.5465,7.38v.0037a6.98,6.98,0,0,0,6.9615,6.561h.4261a6.972,6.972,0,0,0,6.5473-7.373l-.0009-.0109a6.9763,6.9763,0,0,0-6.9579-6.5574" transform="translate(-1.781 -1.6634)"/>
</svg>
