<?xml version="1.0" encoding="utf-8"?>
<!-- Generator: Adobe Illustrator 26.0.3, SVG Export Plug-In . SVG Version: 6.00 Build 0)  -->
<svg version="1.1" id="Calque_2" xmlns="http://www.w3.org/2000/svg" xmlns:xlink="http://www.w3.org/1999/xlink" x="0px" y="0px"
	 viewBox="0 0 559.6 136.9" style="enable-background:new 0 0 559.6 136.9;" xml:space="preserve">
<style type="text/css">
	.st0{fill:#D0043C;}
	.st1{fill:#FFFFFF;}
	.st2{fill-rule:evenodd;clip-rule:evenodd;fill:#FFFFFF;}
	.st3{fill:url(#SVGID_1_);}
	.st4{fill:url(#SVGID_00000174597921229357768690000003959125577422345636_);}
	.st5{fill-rule:evenodd;clip-rule:evenodd;fill:#D0043C;}
	.st6{fill-rule:evenodd;clip-rule:evenodd;fill:#FFD500;}
	.st7{fill-rule:evenodd;clip-rule:evenodd;fill:#005BBB;}
	.st8{fill-rule:evenodd;clip-rule:evenodd;fill:url(#SVGID_00000178204378984345321210000015689185031887005871_);}
	.st9{fill-rule:evenodd;clip-rule:evenodd;fill:#BE1E2D;}
	.st10{fill-rule:evenodd;clip-rule:evenodd;fill:url(#SVGID_00000088091130138081190350000000199533273524699558_);}
</style>
<g>
	<g>
		<rect x="243.3" class="st0" width="252.9" height="107.8"/>
	</g>
	<g>
		<g>
			<path class="st1" d="M448.1,19.5c-9,0-17.5,3.5-23.8,9.7c-6.4,6.7-10,15.2-10,24.9s3.5,18.2,10,24.8c6.4,6.4,14.9,10,23.8,10
				c10.4,0,20.3-4.9,26.8-13.5c4.5-6,6.8-13.3,6.8-21.5c0-9.7-3.4-18.3-9.7-24.8C465.6,23,457.1,19.5,448.1,19.5z M448.1,75.6
				c-10.4,0-18.8-9-18.8-21.5c0-12.5,8.3-21.5,18.8-21.5c10.4,0,18.8,9,18.8,21.5S458.6,75.6,448.1,75.6z"/>
		</g>
		<polygon class="st2" points="405.1,34 405.1,21.3 365.8,21.3 365.8,86.6 379.8,86.6 379.8,63.9 401.5,63.9 401.5,51.2 379.8,51.2 
			379.8,34 		"/>
		<g>
			<rect x="262.4" y="21.3" class="st1" width="14" height="65.3"/>
		</g>
		<polygon class="st1" points="348.2,88.9 348.2,21.3 334.1,21.3 334.1,55.8 293.8,19.4 293.8,86.6 307.8,86.6 307.8,52.5 		"/>
	</g>
	<g>
		<g>
			
				<linearGradient id="SVGID_1_" gradientUnits="userSpaceOnUse" x1="121.6634" y1="782.7971" x2="121.6634" y2="675" gradientTransform="matrix(1 0 0 1 0 -675)">
				<stop  offset="0" style="stop-color:#747373"/>
				<stop  offset="1" style="stop-color:#D9D8D8"/>
			</linearGradient>
			<rect class="st3" width="243.3" height="107.8"/>
			<g>
				<g>
					
						<linearGradient id="SVGID_00000080164850385153521620000006159737016074840453_" gradientUnits="userSpaceOnUse" x1="121.6634" y1="781.7409" x2="121.6634" y2="721.8516" gradientTransform="matrix(1 0 0 1 0 -675)">
						<stop  offset="0" style="stop-color:#747373"/>
						<stop  offset="1" style="stop-color:#D9D8D8"/>
					</linearGradient>
					<rect style="fill:url(#SVGID_00000080164850385153521620000006159737016074840453_);" width="243.3" height="107.8"/>
				</g>
				<g>
					<rect x="84.6" y="5.4" class="st2" width="74" height="97"/>
					<g>
						<polygon class="st0" points="136.8,21.3 122,57.5 121.4,59.5 120.9,57.5 106,21.3 91.3,21.3 121.4,88.9 151.6,21.3 						"/>
					</g>
				</g>
				<g>
					<rect x="164" y="5.4" class="st2" width="74" height="97"/>
					<path class="st5" d="M199.2,21.3h-19.5v65.4h13.6v-20l4.6,0.1c17.7,0,26.4-11.5,26.4-23C224.4,32.4,216,21.3,199.2,21.3z
						 M197.5,54.5h-4.1V33.9h4.7c7.6,0.2,11.3,2.7,11.9,10.2C209.6,52,205.1,54.5,197.5,54.5z"/>
				</g>
				<g>
					<rect x="5.3" y="5.4" class="st2" width="73.8" height="97"/>
					<g>
						<g>
							<polygon class="st5" points="67.4,34 67.4,21.3 16.7,21.3 16.7,34 35,34 35,86.6 49,86.6 49,34 							"/>
						</g>
					</g>
				</g>
			</g>
		</g>
		<g>
			<rect x="5.3" y="5.4" class="st2" width="73.8" height="97"/>
			<g>
				<g>
					<polygon class="st5" points="67.4,34 67.4,21.3 16.7,21.3 16.7,34 35,34 35,86.6 49,86.6 49,34 					"/>
				</g>
			</g>
		</g>
		<g>
			<rect x="84.6" y="5.4" class="st2" width="74" height="97"/>
			<g>
				<polygon class="st0" points="136.8,21.3 122,57.5 121.4,59.5 120.9,57.5 106,21.3 91.3,21.3 121.4,88.9 151.6,21.3 				"/>
			</g>
		</g>
		<g>
			<rect x="164" y="5.4" class="st2" width="74" height="97"/>
			<path class="st5" d="M199.2,21.3h-19.5v65.4h13.6v-20l4.6,0.1c17.7,0,26.4-11.5,26.4-23C224.4,32.4,216,21.3,199.2,21.3z
				 M197.5,54.5h-4.1V33.9h4.7c7.6,0.2,11.3,2.7,11.9,10.2C209.6,52,205.1,54.5,197.5,54.5z"/>
		</g>
	</g>
</g>
<g>
	<path class="st6" d="M416.5,78.5c0,0,9.4-0.6,22.4-3.3c8-1.7,17.5-5.7,26.9-7.6c12.2-2.5,24.5-3.4,33.7-5.3
		c9.6-1.9,15.9-3.8,15.9-3.8l-6.8,47.2c0,0-1.4,0.5-3.9,0.9c-5.7,1.2-17.2,2.2-30.3,5c-10.2,2.1-21.4,6.5-31.5,8.7
		c-8.6,1.8-16.4,2.1-22.4,3.3c-6.8,1.4-11,2.3-11,2.3L416.5,78.5z"/>
	<path class="st7" d="M413,102.6c3.2-0.6,14.5-2.3,28.8-5.3c7.8-1.7,17.1-5.6,25.5-7.3c9.7-2,19.1-2.6,26.7-4.2
		c9-1.8,15.8-3.2,18-3.7l3.4-23.6c0,0-6.4,1.8-15.9,3.8c-9.3,1.9-21.5,2.8-33.7,5.3c-9.4,1.9-18.9,6-26.9,7.6
		c-13,2.7-22.4,3.3-22.4,3.3L413,102.6z"/>
	
		<linearGradient id="SVGID_00000175312513680837007570000002508894168839694993_" gradientUnits="userSpaceOnUse" x1="418.3227" y1="33.6357" x2="486.4676" y2="52.6119" gradientTransform="matrix(1 0 0 -1 0 138)">
		<stop  offset="0.1734" style="stop-color:#FFFFFF;stop-opacity:0"/>
		<stop  offset="0.177" style="stop-color:#FAFAFA;stop-opacity:3.743488e-03"/>
		<stop  offset="0.2223" style="stop-color:#BBBBBB;stop-opacity:5.181252e-02"/>
		<stop  offset="0.2672" style="stop-color:#858585;stop-opacity:9.938191e-02"/>
		<stop  offset="0.3106" style="stop-color:#595959;stop-opacity:0.1453"/>
		<stop  offset="0.3521" style="stop-color:#373737;stop-opacity:0.1893"/>
		<stop  offset="0.3912" style="stop-color:#1E1E1E;stop-opacity:0.2307"/>
		<stop  offset="0.4271" style="stop-color:#0F0F0F;stop-opacity:0.2687"/>
		<stop  offset="0.4566" style="stop-color:#0A0A0A;stop-opacity:0.3"/>
		<stop  offset="0.4994" style="stop-color:#141414;stop-opacity:0.2449"/>
		<stop  offset="0.5731" style="stop-color:#303030;stop-opacity:0.1501"/>
		<stop  offset="0.6682" style="stop-color:#5D5D5D;stop-opacity:2.774641e-02"/>
		<stop  offset="0.6898" style="stop-color:#686868;stop-opacity:0"/>
		<stop  offset="0.9169" style="stop-color:#1C1C1C;stop-opacity:0.3"/>
	</linearGradient>
	<path style="fill-rule:evenodd;clip-rule:evenodd;fill:url(#SVGID_00000175312513680837007570000002508894168839694993_);" d="
		M416.5,78.5c0,0,9.4-0.6,22.4-3.3c8-1.7,17.5-5.7,26.9-7.6c12.2-2.5,24.5-3.4,33.7-5.3c9.6-1.9,15.9-3.8,15.9-3.8l-6.8,47.2
		c0,0-1.4,0.5-3.9,0.9c-5.7,1.2-17.2,2.2-30.3,5c-10.2,2.1-21.4,6.5-31.5,8.7c-8.6,1.8-16.4,2.1-22.4,3.3c-6.8,1.4-11,2.3-11,2.3
		L416.5,78.5z"/>
</g>
<g>
	<path class="st9" d="M460,85.4c0,0,9.4-0.6,22.4-3.3c8-1.7,17.5-5.7,26.9-7.6c12.3-2.5,24.5-3.4,33.7-5.3
		c9.6-1.9,15.9-3.8,15.9-3.8l-6.8,47.2c0,0-1.4,0.5-3.9,0.9c-5.7,1.2-17.2,2.2-30.3,5c-10.2,2.1-21.4,6.5-31.5,8.7
		c-8.6,1.8-16.4,2.1-22.4,3.3c-6.8,1.4-11.1,2.3-11.1,2.3L460,85.4z"/>
	<path class="st2" d="M456.5,109.6c3.2-0.6,14.6-2.3,28.8-5.3c7.8-1.7,17.1-5.6,25.5-7.3c9.7-2,19.1-2.6,26.7-4.2
		c9-1.8,15.8-3.2,18.1-3.7l3.4-23.6c0,0-6.4,1.8-15.9,3.8c-9.3,1.9-21.6,2.8-33.7,5.3c-9.4,1.9-18.9,6-26.9,7.6
		c-13,2.7-22.4,3.3-22.4,3.3L456.5,109.6z"/>
	
		<linearGradient id="SVGID_00000122716734444784045040000005219100449705707198_" gradientUnits="userSpaceOnUse" x1="461.7951" y1="26.7004" x2="529.9904" y2="45.6907" gradientTransform="matrix(1 0 0 -1 0 138)">
		<stop  offset="0.1734" style="stop-color:#FFFFFF;stop-opacity:0"/>
		<stop  offset="0.177" style="stop-color:#FAFAFA;stop-opacity:3.743488e-03"/>
		<stop  offset="0.2223" style="stop-color:#BBBBBB;stop-opacity:5.181252e-02"/>
		<stop  offset="0.2672" style="stop-color:#858585;stop-opacity:9.938191e-02"/>
		<stop  offset="0.3106" style="stop-color:#595959;stop-opacity:0.1453"/>
		<stop  offset="0.3521" style="stop-color:#373737;stop-opacity:0.1893"/>
		<stop  offset="0.3912" style="stop-color:#1E1E1E;stop-opacity:0.2307"/>
		<stop  offset="0.4271" style="stop-color:#0F0F0F;stop-opacity:0.2687"/>
		<stop  offset="0.4566" style="stop-color:#0A0A0A;stop-opacity:0.3"/>
		<stop  offset="0.4994" style="stop-color:#141414;stop-opacity:0.2449"/>
		<stop  offset="0.5731" style="stop-color:#303030;stop-opacity:0.1501"/>
		<stop  offset="0.6682" style="stop-color:#5D5D5D;stop-opacity:2.774641e-02"/>
		<stop  offset="0.6898" style="stop-color:#686868;stop-opacity:0"/>
		<stop  offset="0.9169" style="stop-color:#1C1C1C;stop-opacity:0.3"/>
	</linearGradient>
	<path style="fill-rule:evenodd;clip-rule:evenodd;fill:url(#SVGID_00000122716734444784045040000005219100449705707198_);" d="
		M460,85.4c0,0,9.4-0.6,22.4-3.3c8-1.7,17.5-5.7,26.9-7.6c12.3-2.5,24.5-3.4,33.7-5.3c9.6-1.9,15.9-3.8,15.9-3.8l-6.8,47.2
		c0,0-1.4,0.5-3.9,0.9c-5.7,1.2-17.2,2.2-30.3,5c-10.2,2.1-21.4,6.5-31.5,8.7c-8.6,1.8-16.4,2.1-22.4,3.3
		c-6.8,1.4-11.1,2.3-11.1,2.3L460,85.4z"/>
</g>
</svg>
